<svg xmlns="http://www.w3.org/2000/svg" width="1200" height="760" viewBox="0 0 1200 760">
<defs><linearGradient id="g" x1="0" x2="1" y1="0" y2="1"><stop stop-color="#20242a"/><stop offset="1" stop-color="#030303"/></linearGradient><radialGradient id="r" cx="60%" cy="40%" r="55%"><stop stop-color="#e6e8eb" stop-opacity=".22"/><stop offset="1" stop-color="#000" stop-opacity="0"/></radialGradient></defs><rect width="1200" height="760" fill="url(#g)"/><rect width="1200" height="760" fill="url(#r)"/><g transform="translate(620 360)"><circle r="230" fill="none" stroke="#fff" stroke-opacity=".13" stroke-width="2"/><circle r="142" fill="none" stroke="#fff" stroke-opacity=".12" stroke-width="28"/><circle r="60" fill="#9ba2ab" opacity=".55"/><g stroke="#fff" stroke-opacity=".16"><path d="M0 0L0-230"/><path d="M0 0L120-195"/><path d="M0 0L210-90"/><path d="M0 0L220 55"/><path d="M0 0L110 200"/><path d="M0 0L-90 210"/><path d="M0 0L-210 90"/><path d="M0 0L-220-55"/><path d="M0 0L-110-200"/></g></g><path d="M0 660 C240 540 426 600 630 542 C806 492 965 410 1200 500 L1200 760 L0 760z" fill="#050505" opacity=".72"/></svg>
