<svg width="1200" height="700" viewBox="0 0 1200 700" fill="none" xmlns="http://www.w3.org/2000/svg">
<defs><linearGradient id="b" x1="0" y1="0" x2="1200" y2="700"><stop stop-color="#2b3038"/><stop offset=".55" stop-color="#11151b"/><stop offset="1" stop-color="#050607"/></linearGradient></defs>
<rect width="1200" height="700" rx="48" fill="url(#b)"/>
<path d="M92 505L260 370L404 448L590 282L775 432L950 260L1108 386V620H92V505Z" fill="#0b0f15" stroke="white" stroke-opacity=".13" stroke-width="2"/>
<path d="M160 620V300H350V620M350 620V242H560V620M560 620V330H790V620M790 620V210H1020V620" stroke="white" stroke-opacity=".18" stroke-width="2"/>
<path d="M205 350H306M205 410H306M205 470H306M402 300H516M402 360H516M402 420H516M625 382H742M625 442H742M850 270H965M850 330H965M850 390H965" stroke="#ff6b2b" stroke-opacity=".45" stroke-width="8"/>
<circle cx="920" cy="122" r="58" stroke="white" stroke-opacity=".15"/><circle cx="920" cy="122" r="26" fill="#ff6b2b" fill-opacity=".65"/>
<text x="70" y="116" fill="white" fill-opacity=".8" font-family="Arial" font-size="24" font-weight="700" letter-spacing="7">ARC MANUFACTURING</text>
<text x="70" y="176" fill="white" fill-opacity=".28" font-family="Arial" font-size="70" font-weight="900" letter-spacing="-4">20,000㎡</text>
</svg>