<svg xmlns="http://www.w3.org/2000/svg" width="1920" height="1080" viewBox="0 0 1920 1080" role="img" aria-labelledby="title desc">
  <title id="title">Dark performance cycling and hub engineering visual</title>
  <desc id="desc">A monochrome high-end bicycle hub and rider inspired abstract background.</desc>
  <defs>
    <linearGradient id="bg" x1="0" x2="1" y1="0" y2="1">
      <stop offset="0" stop-color="#1b1e23"/>
      <stop offset="0.45" stop-color="#070809"/>
      <stop offset="1" stop-color="#000"/>
    </linearGradient>
    <radialGradient id="halo" cx="68%" cy="42%" r="48%">
      <stop offset="0" stop-color="#d8dde4" stop-opacity="0.28"/>
      <stop offset="0.42" stop-color="#7d8590" stop-opacity="0.12"/>
      <stop offset="1" stop-color="#000" stop-opacity="0"/>
    </radialGradient>
    <radialGradient id="metal" cx="50%" cy="44%" r="60%">
      <stop offset="0" stop-color="#f3f5f6"/>
      <stop offset="0.24" stop-color="#a6adb6"/>
      <stop offset="0.52" stop-color="#4c535c"/>
      <stop offset="0.82" stop-color="#181b20"/>
      <stop offset="1" stop-color="#050505"/>
    </radialGradient>
    <filter id="soft" x="-20%" y="-20%" width="140%" height="140%">
      <feGaussianBlur stdDeviation="16"/>
    </filter>
    <filter id="shadow" x="-30%" y="-30%" width="160%" height="160%">
      <feDropShadow dx="0" dy="34" stdDeviation="28" flood-color="#000" flood-opacity="0.55"/>
    </filter>
    <pattern id="grid" width="96" height="96" patternUnits="userSpaceOnUse">
      <path d="M96 0H0V96" fill="none" stroke="#fff" stroke-opacity="0.055" stroke-width="1"/>
    </pattern>
  </defs>
  <rect width="1920" height="1080" fill="url(#bg)"/>
  <rect width="1920" height="1080" fill="url(#grid)" opacity="0.5"/>
  <rect width="1920" height="1080" fill="url(#halo)"/>
  <path d="M0 800 C280 700 440 720 680 772 C950 830 1110 740 1330 655 C1540 575 1740 604 1920 520 L1920 1080 L0 1080 Z" fill="#060708" opacity="0.92"/>
  <path d="M-80 860 C230 735 460 755 695 808 C965 867 1128 760 1357 674 C1573 592 1788 620 1990 520" fill="none" stroke="#ffffff" stroke-opacity="0.08" stroke-width="2"/>
  <g opacity="0.16" filter="url(#soft)">
    <ellipse cx="1400" cy="515" rx="360" ry="120" fill="#ffffff"/>
  </g>
  <g transform="translate(1260 488)" filter="url(#shadow)">
    <circle cx="0" cy="0" r="245" fill="none" stroke="#d9dde2" stroke-opacity="0.18" stroke-width="6"/>
    <circle cx="0" cy="0" r="188" fill="none" stroke="#d9dde2" stroke-opacity="0.12" stroke-width="2"/>
    <circle cx="0" cy="0" r="92" fill="url(#metal)" opacity="0.85"/>
    <circle cx="0" cy="0" r="38" fill="#050505" stroke="#e9ecef" stroke-opacity="0.3" stroke-width="3"/>
    <g stroke="#d9dde2" stroke-opacity="0.16" stroke-width="2">
      <path d="M0 0 L0 -232"/><path d="M0 0 L116 -201"/><path d="M0 0 L201 -116"/><path d="M0 0 L232 0"/><path d="M0 0 L201 116"/><path d="M0 0 L116 201"/><path d="M0 0 L0 232"/><path d="M0 0 L-116 201"/><path d="M0 0 L-201 116"/><path d="M0 0 L-232 0"/><path d="M0 0 L-201 -116"/><path d="M0 0 L-116 -201"/>
    </g>
  </g>
  <g transform="translate(1160 375)" opacity="0.86">
    <path d="M-92 70 C-40 18 25 15 65 57 C88 82 114 128 162 168" fill="none" stroke="#f3f4f5" stroke-width="26" stroke-linecap="round" stroke-linejoin="round" opacity="0.54"/>
    <circle cx="-120" cy="92" r="118" fill="none" stroke="#f3f4f5" stroke-opacity="0.32" stroke-width="11"/>
    <circle cx="204" cy="178" r="128" fill="none" stroke="#f3f4f5" stroke-opacity="0.32" stroke-width="11"/>
    <path d="M-45 42 L22 138 L-122 92 L-10 92 L63 58 L206 178" fill="none" stroke="#f3f4f5" stroke-opacity="0.43" stroke-width="9" stroke-linecap="round" stroke-linejoin="round"/>
    <path d="M15 25 L50 -22 L92 -12" fill="none" stroke="#f3f4f5" stroke-opacity="0.54" stroke-width="10" stroke-linecap="round"/>
    <circle cx="14" cy="-2" r="24" fill="#eef1f3" opacity="0.48"/>
  </g>
  <g opacity="0.13">
    <path d="M1460 132 L1830 132" stroke="#fff" stroke-width="1"/>
    <path d="M1460 168 L1760 168" stroke="#fff" stroke-width="1"/>
    <path d="M1460 204 L1880 204" stroke="#fff" stroke-width="1"/>
  </g>
  <rect x="0" y="0" width="1920" height="1080" fill="url(#bg)" opacity="0.10"/>
</svg>
