<svg width="960" height="640" viewBox="0 0 960 640" fill="none" xmlns="http://www.w3.org/2000/svg">
<defs>
  <radialGradient id="rg" cx="50%" cy="46%" r="60%">
    <stop offset="0" stop-color="#343a42"/>
    <stop offset=".45" stop-color="#11161d"/>
    <stop offset="1" stop-color="#050607"/>
  </radialGradient>
  <linearGradient id="lg" x1="0" y1="0" x2="960" y2="640" gradientUnits="userSpaceOnUse">
    <stop stop-color="#2b3038"/>
    <stop offset=".55" stop-color="#0c1016"/>
    <stop offset="1" stop-color="#050607"/>
  </linearGradient>
  <filter id="shadow" x="-50%" y="-50%" width="200%" height="200%"><feDropShadow dx="0" dy="28" stdDeviation="38" flood-color="#000" flood-opacity=".6"/></filter>
</defs>
<rect width="960" height="640" rx="44" fill="url(#lg)"/>
<path d="M0 520 C210 430 290 560 500 450 C692 350 740 420 960 328" stroke="white" stroke-opacity=".08" stroke-width="2"/>
<path d="M80 120 H880" stroke="white" stroke-opacity=".08"/><path d="M80 520 H880" stroke="white" stroke-opacity=".08"/><path d="M120 80 V560" stroke="white" stroke-opacity=".05"/><path d="M840 80 V560" stroke="white" stroke-opacity=".05"/>
<g filter="url(#shadow)" transform="translate(480 318)">
  <circle r="210" stroke="white" stroke-opacity=".16" stroke-width="2"/>
  <circle r="166" stroke="white" stroke-opacity=".12" stroke-width="1"/>
  <circle r="106" fill="url(#rg)" stroke="white" stroke-opacity=".22" stroke-width="2"/>
  <circle r="54" fill="#0b0e13" stroke="#ff6b2b" stroke-opacity=".85" stroke-width="3"/>
  <circle r="20" fill="#d7dde6" opacity=".92"/>
  <line x1="0" y1="-205" x2="0" y2="-62" stroke="white" stroke-opacity=".22" stroke-width="1" transform="rotate(0.0)"/><line x1="0" y1="-205" x2="0" y2="-62" stroke="white" stroke-opacity=".22" stroke-width="1" transform="rotate(16.363636363636363)"/><line x1="0" y1="-205" x2="0" y2="-62" stroke="white" stroke-opacity=".22" stroke-width="1" transform="rotate(32.72727272727273)"/><line x1="0" y1="-205" x2="0" y2="-62" stroke="white" stroke-opacity=".22" stroke-width="1" transform="rotate(49.09090909090909)"/><line x1="0" y1="-205" x2="0" y2="-62" stroke="white" stroke-opacity=".22" stroke-width="1" transform="rotate(65.45454545454545)"/><line x1="0" y1="-205" x2="0" y2="-62" stroke="white" stroke-opacity=".22" stroke-width="1" transform="rotate(81.81818181818181)"/><line x1="0" y1="-205" x2="0" y2="-62" stroke="white" stroke-opacity=".22" stroke-width="1" transform="rotate(98.18181818181819)"/><line x1="0" y1="-205" x2="0" y2="-62" stroke="white" stroke-opacity=".22" stroke-width="1" transform="rotate(114.54545454545455)"/><line x1="0" y1="-205" x2="0" y2="-62" stroke="white" stroke-opacity=".22" stroke-width="1" transform="rotate(130.9090909090909)"/><line x1="0" y1="-205" x2="0" y2="-62" stroke="white" stroke-opacity=".22" stroke-width="1" transform="rotate(147.27272727272728)"/><line x1="0" y1="-205" x2="0" y2="-62" stroke="white" stroke-opacity=".22" stroke-width="1" transform="rotate(163.63636363636363)"/><line x1="0" y1="-205" x2="0" y2="-62" stroke="white" stroke-opacity=".22" stroke-width="1" transform="rotate(180.0)"/><line x1="0" y1="-205" x2="0" y2="-62" stroke="white" stroke-opacity=".22" stroke-width="1" transform="rotate(196.36363636363637)"/><line x1="0" y1="-205" x2="0" y2="-62" stroke="white" stroke-opacity=".22" stroke-width="1" transform="rotate(212.72727272727272)"/><line x1="0" y1="-205" x2="0" y2="-62" stroke="white" stroke-opacity=".22" stroke-width="1" transform="rotate(229.0909090909091)"/><line x1="0" y1="-205" x2="0" y2="-62" stroke="white" stroke-opacity=".22" stroke-width="1" transform="rotate(245.45454545454547)"/><line x1="0" y1="-205" x2="0" y2="-62" stroke="white" stroke-opacity=".22" stroke-width="1" transform="rotate(261.8181818181818)"/><line x1="0" y1="-205" x2="0" y2="-62" stroke="white" stroke-opacity=".22" stroke-width="1" transform="rotate(278.1818181818182)"/><line x1="0" y1="-205" x2="0" y2="-62" stroke="white" stroke-opacity=".22" stroke-width="1" transform="rotate(294.54545454545456)"/><line x1="0" y1="-205" x2="0" y2="-62" stroke="white" stroke-opacity=".22" stroke-width="1" transform="rotate(310.90909090909093)"/><line x1="0" y1="-205" x2="0" y2="-62" stroke="white" stroke-opacity=".22" stroke-width="1" transform="rotate(327.27272727272725)"/><line x1="0" y1="-205" x2="0" y2="-62" stroke="white" stroke-opacity=".22" stroke-width="1" transform="rotate(343.6363636363636)"/>
  <line x1="0" y1="62" x2="0" y2="205" stroke="white" stroke-opacity=".12" stroke-width="1" transform="rotate(0.0)"/><line x1="0" y1="62" x2="0" y2="205" stroke="white" stroke-opacity=".12" stroke-width="1" transform="rotate(8.181818181818182)"/><line x1="0" y1="62" x2="0" y2="205" stroke="white" stroke-opacity=".12" stroke-width="1" transform="rotate(16.363636363636363)"/><line x1="0" y1="62" x2="0" y2="205" stroke="white" stroke-opacity=".12" stroke-width="1" transform="rotate(24.545454545454547)"/><line x1="0" y1="62" x2="0" y2="205" stroke="white" stroke-opacity=".12" stroke-width="1" transform="rotate(32.72727272727273)"/><line x1="0" y1="62" x2="0" y2="205" stroke="white" stroke-opacity=".12" stroke-width="1" transform="rotate(40.90909090909091)"/><line x1="0" y1="62" x2="0" y2="205" stroke="white" stroke-opacity=".12" stroke-width="1" transform="rotate(49.09090909090909)"/><line x1="0" y1="62" x2="0" y2="205" stroke="white" stroke-opacity=".12" stroke-width="1" transform="rotate(57.27272727272727)"/><line x1="0" y1="62" x2="0" y2="205" stroke="white" stroke-opacity=".12" stroke-width="1" transform="rotate(65.45454545454545)"/><line x1="0" y1="62" x2="0" y2="205" stroke="white" stroke-opacity=".12" stroke-width="1" transform="rotate(73.63636363636364)"/><line x1="0" y1="62" x2="0" y2="205" stroke="white" stroke-opacity=".12" stroke-width="1" transform="rotate(81.81818181818181)"/><line x1="0" y1="62" x2="0" y2="205" stroke="white" stroke-opacity=".12" stroke-width="1" transform="rotate(90.0)"/><line x1="0" y1="62" x2="0" y2="205" stroke="white" stroke-opacity=".12" stroke-width="1" transform="rotate(98.18181818181819)"/><line x1="0" y1="62" x2="0" y2="205" stroke="white" stroke-opacity=".12" stroke-width="1" transform="rotate(106.36363636363636)"/><line x1="0" y1="62" x2="0" y2="205" stroke="white" stroke-opacity=".12" stroke-width="1" transform="rotate(114.54545454545455)"/><line x1="0" y1="62" x2="0" y2="205" stroke="white" stroke-opacity=".12" stroke-width="1" transform="rotate(122.72727272727273)"/><line x1="0" y1="62" x2="0" y2="205" stroke="white" stroke-opacity=".12" stroke-width="1" transform="rotate(130.9090909090909)"/><line x1="0" y1="62" x2="0" y2="205" stroke="white" stroke-opacity=".12" stroke-width="1" transform="rotate(139.0909090909091)"/><line x1="0" y1="62" x2="0" y2="205" stroke="white" stroke-opacity=".12" stroke-width="1" transform="rotate(147.27272727272728)"/><line x1="0" y1="62" x2="0" y2="205" stroke="white" stroke-opacity=".12" stroke-width="1" transform="rotate(155.45454545454547)"/><line x1="0" y1="62" x2="0" y2="205" stroke="white" stroke-opacity=".12" stroke-width="1" transform="rotate(163.63636363636363)"/><line x1="0" y1="62" x2="0" y2="205" stroke="white" stroke-opacity=".12" stroke-width="1" transform="rotate(171.8181818181818)"/><line x1="0" y1="62" x2="0" y2="205" stroke="white" stroke-opacity=".12" stroke-width="1" transform="rotate(180.0)"/><line x1="0" y1="62" x2="0" y2="205" stroke="white" stroke-opacity=".12" stroke-width="1" transform="rotate(188.1818181818182)"/><line x1="0" y1="62" x2="0" y2="205" stroke="white" stroke-opacity=".12" stroke-width="1" transform="rotate(196.36363636363637)"/><line x1="0" y1="62" x2="0" y2="205" stroke="white" stroke-opacity=".12" stroke-width="1" transform="rotate(204.54545454545453)"/><line x1="0" y1="62" x2="0" y2="205" stroke="white" stroke-opacity=".12" stroke-width="1" transform="rotate(212.72727272727272)"/><line x1="0" y1="62" x2="0" y2="205" stroke="white" stroke-opacity=".12" stroke-width="1" transform="rotate(220.9090909090909)"/><line x1="0" y1="62" x2="0" y2="205" stroke="white" stroke-opacity=".12" stroke-width="1" transform="rotate(229.0909090909091)"/><line x1="0" y1="62" x2="0" y2="205" stroke="white" stroke-opacity=".12" stroke-width="1" transform="rotate(237.27272727272728)"/><line x1="0" y1="62" x2="0" y2="205" stroke="white" stroke-opacity=".12" stroke-width="1" transform="rotate(245.45454545454547)"/><line x1="0" y1="62" x2="0" y2="205" stroke="white" stroke-opacity=".12" stroke-width="1" transform="rotate(253.63636363636363)"/><line x1="0" y1="62" x2="0" y2="205" stroke="white" stroke-opacity=".12" stroke-width="1" transform="rotate(261.8181818181818)"/><line x1="0" y1="62" x2="0" y2="205" stroke="white" stroke-opacity=".12" stroke-width="1" transform="rotate(270.0)"/><line x1="0" y1="62" x2="0" y2="205" stroke="white" stroke-opacity=".12" stroke-width="1" transform="rotate(278.1818181818182)"/><line x1="0" y1="62" x2="0" y2="205" stroke="white" stroke-opacity=".12" stroke-width="1" transform="rotate(286.3636363636364)"/><line x1="0" y1="62" x2="0" y2="205" stroke="white" stroke-opacity=".12" stroke-width="1" transform="rotate(294.54545454545456)"/><line x1="0" y1="62" x2="0" y2="205" stroke="white" stroke-opacity=".12" stroke-width="1" transform="rotate(302.72727272727275)"/><line x1="0" y1="62" x2="0" y2="205" stroke="white" stroke-opacity=".12" stroke-width="1" transform="rotate(310.90909090909093)"/><line x1="0" y1="62" x2="0" y2="205" stroke="white" stroke-opacity=".12" stroke-width="1" transform="rotate(319.09090909090907)"/><line x1="0" y1="62" x2="0" y2="205" stroke="white" stroke-opacity=".12" stroke-width="1" transform="rotate(327.27272727272725)"/><line x1="0" y1="62" x2="0" y2="205" stroke="white" stroke-opacity=".12" stroke-width="1" transform="rotate(335.45454545454544)"/><line x1="0" y1="62" x2="0" y2="205" stroke="white" stroke-opacity=".12" stroke-width="1" transform="rotate(343.6363636363636)"/><line x1="0" y1="62" x2="0" y2="205" stroke="white" stroke-opacity=".12" stroke-width="1" transform="rotate(351.8181818181818)"/>
</g>
<text x="52" y="92" fill="white" fill-opacity=".78" font-family="Arial, Helvetica, sans-serif" font-size="22" font-weight="700" letter-spacing="6">CUSTOM HUB PROJECT</text>
<text x="52" y="562" fill="white" fill-opacity=".26" font-family="Arial, Helvetica, sans-serif" font-size="82" font-weight="900" letter-spacing="-6">ARC</text>
</svg>