<svg width="960" height="640" viewBox="0 0 960 640" fill="none" xmlns="http://www.w3.org/2000/svg">
<defs>
  <radialGradient id="rg" cx="50%" cy="46%" r="60%">
    <stop offset="0" stop-color="#343a42"/>
    <stop offset=".45" stop-color="#11161d"/>
    <stop offset="1" stop-color="#050607"/>
  </radialGradient>
  <linearGradient id="lg" x1="0" y1="0" x2="960" y2="640" gradientUnits="userSpaceOnUse">
    <stop stop-color="#2b3038"/>
    <stop offset=".55" stop-color="#0c1016"/>
    <stop offset="1" stop-color="#050607"/>
  </linearGradient>
  <filter id="shadow" x="-50%" y="-50%" width="200%" height="200%"><feDropShadow dx="0" dy="28" stdDeviation="38" flood-color="#000" flood-opacity=".6"/></filter>
</defs>
<rect width="960" height="640" rx="44" fill="url(#lg)"/>
<path d="M0 520 C210 430 290 560 500 450 C692 350 740 420 960 328" stroke="white" stroke-opacity=".08" stroke-width="2"/>
<path d="M80 120 H880" stroke="white" stroke-opacity=".08"/><path d="M80 520 H880" stroke="white" stroke-opacity=".08"/><path d="M120 80 V560" stroke="white" stroke-opacity=".05"/><path d="M840 80 V560" stroke="white" stroke-opacity=".05"/>
<g filter="url(#shadow)" transform="translate(480 318)">
  <circle r="210" stroke="white" stroke-opacity=".16" stroke-width="2"/>
  <circle r="166" stroke="white" stroke-opacity=".12" stroke-width="1"/>
  <circle r="106" fill="url(#rg)" stroke="white" stroke-opacity=".22" stroke-width="2"/>
  <circle r="54" fill="#0b0e13" stroke="#9aa3ad" stroke-opacity=".85" stroke-width="3"/>
  <circle r="20" fill="#d7dde6" opacity=".92"/>
  <line x1="0" y1="-205" x2="0" y2="-62" stroke="white" stroke-opacity=".22" stroke-width="1" transform="rotate(0.0)"/><line x1="0" y1="-205" x2="0" y2="-62" stroke="white" stroke-opacity=".22" stroke-width="1" transform="rotate(20.0)"/><line x1="0" y1="-205" x2="0" y2="-62" stroke="white" stroke-opacity=".22" stroke-width="1" transform="rotate(40.0)"/><line x1="0" y1="-205" x2="0" y2="-62" stroke="white" stroke-opacity=".22" stroke-width="1" transform="rotate(60.0)"/><line x1="0" y1="-205" x2="0" y2="-62" stroke="white" stroke-opacity=".22" stroke-width="1" transform="rotate(80.0)"/><line x1="0" y1="-205" x2="0" y2="-62" stroke="white" stroke-opacity=".22" stroke-width="1" transform="rotate(100.0)"/><line x1="0" y1="-205" x2="0" y2="-62" stroke="white" stroke-opacity=".22" stroke-width="1" transform="rotate(120.0)"/><line x1="0" y1="-205" x2="0" y2="-62" stroke="white" stroke-opacity=".22" stroke-width="1" transform="rotate(140.0)"/><line x1="0" y1="-205" x2="0" y2="-62" stroke="white" stroke-opacity=".22" stroke-width="1" transform="rotate(160.0)"/><line x1="0" y1="-205" x2="0" y2="-62" stroke="white" stroke-opacity=".22" stroke-width="1" transform="rotate(180.0)"/><line x1="0" y1="-205" x2="0" y2="-62" stroke="white" stroke-opacity=".22" stroke-width="1" transform="rotate(200.0)"/><line x1="0" y1="-205" x2="0" y2="-62" stroke="white" stroke-opacity=".22" stroke-width="1" transform="rotate(220.0)"/><line x1="0" y1="-205" x2="0" y2="-62" stroke="white" stroke-opacity=".22" stroke-width="1" transform="rotate(240.0)"/><line x1="0" y1="-205" x2="0" y2="-62" stroke="white" stroke-opacity=".22" stroke-width="1" transform="rotate(260.0)"/><line x1="0" y1="-205" x2="0" y2="-62" stroke="white" stroke-opacity=".22" stroke-width="1" transform="rotate(280.0)"/><line x1="0" y1="-205" x2="0" y2="-62" stroke="white" stroke-opacity=".22" stroke-width="1" transform="rotate(300.0)"/><line x1="0" y1="-205" x2="0" y2="-62" stroke="white" stroke-opacity=".22" stroke-width="1" transform="rotate(320.0)"/><line x1="0" y1="-205" x2="0" y2="-62" stroke="white" stroke-opacity=".22" stroke-width="1" transform="rotate(340.0)"/>
  <line x1="0" y1="62" x2="0" y2="205" stroke="white" stroke-opacity=".12" stroke-width="1" transform="rotate(0.0)"/><line x1="0" y1="62" x2="0" y2="205" stroke="white" stroke-opacity=".12" stroke-width="1" transform="rotate(10.0)"/><line x1="0" y1="62" x2="0" y2="205" stroke="white" stroke-opacity=".12" stroke-width="1" transform="rotate(20.0)"/><line x1="0" y1="62" x2="0" y2="205" stroke="white" stroke-opacity=".12" stroke-width="1" transform="rotate(30.0)"/><line x1="0" y1="62" x2="0" y2="205" stroke="white" stroke-opacity=".12" stroke-width="1" transform="rotate(40.0)"/><line x1="0" y1="62" x2="0" y2="205" stroke="white" stroke-opacity=".12" stroke-width="1" transform="rotate(50.0)"/><line x1="0" y1="62" x2="0" y2="205" stroke="white" stroke-opacity=".12" stroke-width="1" transform="rotate(60.0)"/><line x1="0" y1="62" x2="0" y2="205" stroke="white" stroke-opacity=".12" stroke-width="1" transform="rotate(70.0)"/><line x1="0" y1="62" x2="0" y2="205" stroke="white" stroke-opacity=".12" stroke-width="1" transform="rotate(80.0)"/><line x1="0" y1="62" x2="0" y2="205" stroke="white" stroke-opacity=".12" stroke-width="1" transform="rotate(90.0)"/><line x1="0" y1="62" x2="0" y2="205" stroke="white" stroke-opacity=".12" stroke-width="1" transform="rotate(100.0)"/><line x1="0" y1="62" x2="0" y2="205" stroke="white" stroke-opacity=".12" stroke-width="1" transform="rotate(110.0)"/><line x1="0" y1="62" x2="0" y2="205" stroke="white" stroke-opacity=".12" stroke-width="1" transform="rotate(120.0)"/><line x1="0" y1="62" x2="0" y2="205" stroke="white" stroke-opacity=".12" stroke-width="1" transform="rotate(130.0)"/><line x1="0" y1="62" x2="0" y2="205" stroke="white" stroke-opacity=".12" stroke-width="1" transform="rotate(140.0)"/><line x1="0" y1="62" x2="0" y2="205" stroke="white" stroke-opacity=".12" stroke-width="1" transform="rotate(150.0)"/><line x1="0" y1="62" x2="0" y2="205" stroke="white" stroke-opacity=".12" stroke-width="1" transform="rotate(160.0)"/><line x1="0" y1="62" x2="0" y2="205" stroke="white" stroke-opacity=".12" stroke-width="1" transform="rotate(170.0)"/><line x1="0" y1="62" x2="0" y2="205" stroke="white" stroke-opacity=".12" stroke-width="1" transform="rotate(180.0)"/><line x1="0" y1="62" x2="0" y2="205" stroke="white" stroke-opacity=".12" stroke-width="1" transform="rotate(190.0)"/><line x1="0" y1="62" x2="0" y2="205" stroke="white" stroke-opacity=".12" stroke-width="1" transform="rotate(200.0)"/><line x1="0" y1="62" x2="0" y2="205" stroke="white" stroke-opacity=".12" stroke-width="1" transform="rotate(210.0)"/><line x1="0" y1="62" x2="0" y2="205" stroke="white" stroke-opacity=".12" stroke-width="1" transform="rotate(220.0)"/><line x1="0" y1="62" x2="0" y2="205" stroke="white" stroke-opacity=".12" stroke-width="1" transform="rotate(230.0)"/><line x1="0" y1="62" x2="0" y2="205" stroke="white" stroke-opacity=".12" stroke-width="1" transform="rotate(240.0)"/><line x1="0" y1="62" x2="0" y2="205" stroke="white" stroke-opacity=".12" stroke-width="1" transform="rotate(250.0)"/><line x1="0" y1="62" x2="0" y2="205" stroke="white" stroke-opacity=".12" stroke-width="1" transform="rotate(260.0)"/><line x1="0" y1="62" x2="0" y2="205" stroke="white" stroke-opacity=".12" stroke-width="1" transform="rotate(270.0)"/><line x1="0" y1="62" x2="0" y2="205" stroke="white" stroke-opacity=".12" stroke-width="1" transform="rotate(280.0)"/><line x1="0" y1="62" x2="0" y2="205" stroke="white" stroke-opacity=".12" stroke-width="1" transform="rotate(290.0)"/><line x1="0" y1="62" x2="0" y2="205" stroke="white" stroke-opacity=".12" stroke-width="1" transform="rotate(300.0)"/><line x1="0" y1="62" x2="0" y2="205" stroke="white" stroke-opacity=".12" stroke-width="1" transform="rotate(310.0)"/><line x1="0" y1="62" x2="0" y2="205" stroke="white" stroke-opacity=".12" stroke-width="1" transform="rotate(320.0)"/><line x1="0" y1="62" x2="0" y2="205" stroke="white" stroke-opacity=".12" stroke-width="1" transform="rotate(330.0)"/><line x1="0" y1="62" x2="0" y2="205" stroke="white" stroke-opacity=".12" stroke-width="1" transform="rotate(340.0)"/><line x1="0" y1="62" x2="0" y2="205" stroke="white" stroke-opacity=".12" stroke-width="1" transform="rotate(350.0)"/>
</g>
<text x="52" y="92" fill="white" fill-opacity=".78" font-family="Arial, Helvetica, sans-serif" font-size="22" font-weight="700" letter-spacing="6">ROAD HUB PLATFORM</text>
<text x="52" y="562" fill="white" fill-opacity=".26" font-family="Arial, Helvetica, sans-serif" font-size="82" font-weight="900" letter-spacing="-6">ARC</text>
</svg>