<svg width="1400" height="860" viewBox="0 0 1400 860" fill="none" xmlns="http://www.w3.org/2000/svg">
  <defs>
    <linearGradient id="wheelGlow" x1="0" y1="0" x2="1" y2="1">
      <stop offset="0%" stop-color="#ffffff" stop-opacity="0.20"/>
      <stop offset="100%" stop-color="#ffffff" stop-opacity="0.04"/>
    </linearGradient>
    <linearGradient id="frame" x1="0" y1="0" x2="1" y2="1">
      <stop offset="0%" stop-color="#f2f5f8" stop-opacity="0.92"/>
      <stop offset="75%" stop-color="#f2f5f8" stop-opacity="0.66"/>
      <stop offset="100%" stop-color="#caa76a" stop-opacity="0.72"/>
    </linearGradient>
    <linearGradient id="accent" x1="0" y1="0" x2="1" y2="1">
      <stop offset="0%" stop-color="#b8192a" stop-opacity="0.80"/>
      <stop offset="100%" stop-color="#caa76a" stop-opacity="0.55"/>
    </linearGradient>
    <filter id="softBlur" x="-20%" y="-20%" width="140%" height="140%">
      <feGaussianBlur stdDeviation="12"/>
    </filter>
  </defs>

  <g opacity="0.42">
    <circle cx="380" cy="570" r="178" stroke="url(#wheelGlow)" stroke-width="16"/>
    <circle cx="910" cy="570" r="178" stroke="url(#wheelGlow)" stroke-width="16"/>
    <circle cx="380" cy="570" r="128" stroke="#ffffff" stroke-opacity="0.14" stroke-width="2" stroke-dasharray="10 14"/>
    <circle cx="910" cy="570" r="128" stroke="#ffffff" stroke-opacity="0.14" stroke-width="2" stroke-dasharray="10 14"/>
  </g>

  <g opacity="0.72">
    <path d="M378 566L546 402L708 575H378Z" stroke="url(#frame)" stroke-width="16" stroke-linecap="round" stroke-linejoin="round"/>
    <path d="M546 402L646 402" stroke="url(#frame)" stroke-width="16" stroke-linecap="round"/>
    <path d="M610 402L702 309" stroke="url(#frame)" stroke-width="16" stroke-linecap="round"/>
    <path d="M646 402L764 566" stroke="url(#frame)" stroke-width="16" stroke-linecap="round"/>
    <path d="M708 575L910 570" stroke="url(#frame)" stroke-width="16" stroke-linecap="round"/>
    <path d="M546 402L470 566" stroke="url(#frame)" stroke-width="16" stroke-linecap="round"/>
    <path d="M702 309L756 346" stroke="url(#frame)" stroke-width="14" stroke-linecap="round"/>
    <path d="M760 346L834 356" stroke="url(#frame)" stroke-width="14" stroke-linecap="round"/>
    <path d="M830 358L934 516" stroke="url(#frame)" stroke-width="14" stroke-linecap="round"/>
    <path d="M702 309L638 280" stroke="url(#frame)" stroke-width="14" stroke-linecap="round"/>
    <path d="M638 280L590 318" stroke="url(#frame)" stroke-width="14" stroke-linecap="round"/>
    <circle cx="546" cy="402" r="24" fill="#ffffff" fill-opacity="0.12" stroke="#ffffff" stroke-opacity="0.36" stroke-width="6"/>
    <circle cx="378" cy="566" r="26" fill="#ffffff" fill-opacity="0.10" stroke="url(#accent)" stroke-width="8"/>
    <circle cx="910" cy="570" r="26" fill="#ffffff" fill-opacity="0.10" stroke="url(#accent)" stroke-width="8"/>
  </g>

  <g opacity="0.76">
    <circle cx="615" cy="218" r="34" fill="#ffffff" fill-opacity="0.20" stroke="#ffffff" stroke-opacity="0.48" stroke-width="8"/>
    <path d="M615 252L676 327L760 347" stroke="#ffffff" stroke-opacity="0.72" stroke-width="16" stroke-linecap="round" stroke-linejoin="round"/>
    <path d="M676 327L602 404" stroke="#ffffff" stroke-opacity="0.72" stroke-width="16" stroke-linecap="round" stroke-linejoin="round"/>
    <path d="M676 327L736 430" stroke="#ffffff" stroke-opacity="0.72" stroke-width="16" stroke-linecap="round" stroke-linejoin="round"/>
    <path d="M602 404L480 566" stroke="#ffffff" stroke-opacity="0.68" stroke-width="16" stroke-linecap="round"/>
    <path d="M736 430L808 572" stroke="#ffffff" stroke-opacity="0.68" stroke-width="16" stroke-linecap="round"/>
  </g>

  <g opacity="0.28" filter="url(#softBlur)">
    <ellipse cx="910" cy="570" rx="166" ry="22" fill="#b8192a"/>
    <ellipse cx="380" cy="570" rx="166" ry="22" fill="#caa76a"/>
  </g>

  <g opacity="0.28">
    <path d="M998 198H1260" stroke="#ffffff" stroke-opacity="0.42" stroke-width="4" stroke-linecap="round"/>
    <path d="M1042 246H1284" stroke="#ffffff" stroke-opacity="0.22" stroke-width="4" stroke-linecap="round"/>
    <path d="M1006 294H1236" stroke="#ffffff" stroke-opacity="0.14" stroke-width="4" stroke-linecap="round"/>
  </g>
</svg>
